# xmcd
#
# Track frame offsets: 
#        150
#        16782
#        32787
#        47825
#        63447
#        81067
#        97440
#        114635
#        135140
#        150995
#        167940
#
# Disc length: 2461 seconds
#
# Revision: 2
# Processed by: cddbd v1.5.2PL0 Copyright (c) Steve Scherf et al.
# Submitted via: ExactAudioCopy v0.99pb5
#
DISCID=86099b0b
DTITLE=Nine Below Zero - Hot Music for a Cold Night
DYEAR=1994
DGENRE=Blues
TTITLE0=Burn Love
TTITLE1=Badtown Blues
TTITLE2=Thieves in the Night
TTITLE3=I've Never Loved a Man (the Way I Loved You)
TTITLE4=Jump Back Baby
TTITLE5=She Gives Me the Shakes
TTITLE6=Soft Touch
TTITLE7=Bleeding Heart
TTITLE8=Satellite Blues
TTITLE9=Down in the Dirt Again
TTITLE10=Hangman in the Sand
EXTD=
EXTT0=
EXTT1=
EXTT2=
EXTT3=
EXTT4=
EXTT5=
EXTT6=
EXTT7=
EXTT8=
EXTT9=
EXTT10=
PLAYORDER=
